<svg xmlns="http://www.w3.org/2000/svg" viewbox="0 0 64 64" width="64" height="64"><path d="M20 4a8 8 0 0 0-8 8v32a8 8 0 0 0 8 8h32a8 8 0 0 0 8-8V12a8 8 0 0 0-8-8z"/><path d="M10 12.3A8 8 0 0 0 4 20v32a8 8 0 0 0 8 8h32a8 8 0 0 0 7.7-6H20a10 10 0 0 1-10-10z"/><path fill="#fff" d="M28 38.8v-3q2.8 2 6.4 2 2.9 0 4.6-1.2 1.8-1.3 1.8-3.3 0-4.6-7.7-4.6h-2.3v-2.2h2.1q6.9 0 6.9-4.3 0-4-5.2-4-3 0-5.5 1.7v-2.6q2.6-1.3 6.3-1.3 3.4 0 5.5 1.6 2.1 1.5 2.1 4 0 4.5-5.5 5.8v.1q3 .2 4.7 1.8Q44 30.8 44 33q0 3.2-2.7 5-2.6 2-7 2-4 0-6.3-1.2z"/></svg>
