<svg xmlns="http://www.w3.org/2000/svg" width="64" height="64"><path d="M 20.000001,4.0000013 C 15.581905,4.0004433 12.000442,7.5819063 12,12.000002 V 44 c 4.42e-4,4.418095 3.581905,7.999558 8.000001,8 h 31.999998 c 4.418095,-4.42e-4 7.999558,-3.581905 8,-8 V 12.000002 c -4.42e-4,-4.4180957 -3.581905,-7.9995587 -8,-8.0000007 z"/><path d="M 10,12.261719 C 6.5518023,13.151445 4.0003728,16.273965 4,20 v 32 c 4.42e-4,4.418095 3.581905,7.999558 8,8 h 32 c 3.726035,-3.73e-4 6.848555,-2.551802 7.738281,-6 H 20 C 14.501166,53.99945 10.00055,49.498834 10,44 Z"/><path d="m 28,38.753044 v -2.866398 q 2.837154,1.878544 6.40772,1.878544 2.895055,0 4.612786,-1.214575 1.737032,-1.214577 1.737032,-3.271258 0,-4.550608 -7.700845,-4.550608 h -2.296741 v -2.251013 h 2.180941 q 6.851629,0 6.851629,-4.275306 0,-3.95142 -5.230398,-3.95142 -2.914356,0 -5.500606,1.668018 v -2.591094 q 2.663452,-1.327936 6.29192,-1.327936 3.493366,0 5.577805,1.554657 2.103739,1.554656 2.103739,3.983808 0,4.582997 -5.558505,5.894739 v 0.06477 q 2.991555,0.242915 4.74789,1.765183 Q 44,30.769228 44,33.036435 44,36.161942 41.31725,38.089069 38.653799,40 34.272616,40 30.335343,40 28,38.753036 Z" style="fill:#fff"/></svg>